<svg id="Layer_1" data-name="Layer 1" xmlns="http://www.w3.org/2000/svg" xmlns:xlink="http://www.w3.org/1999/xlink" viewBox="0 0 850 150"><defs>
	<style>.cls-1{fill:#2a56c1;}.cls-2{fill:#e98000;}.cls-3{fill:#097138;}.cls-4{fill:#a02714;}.cls-5{fill:#d64437;}.cls-6{fill:#0f9858;}.cls-7{fill:#4280ef;}.cls-8{fill:#efaf00;}.cls-9{fill:#fff;}.cls-10,.cls-11,.cls-12,.cls-13,.cls-9{opacity:0.2;isolation:isolate;}.cls-10{fill:#263238;}.cls-11{fill:#ba360c;}.cls-12{fill:#1a237e;}.cls-13{fill:#3e2723;}.cls-14{fill:url(#linear-gradient);}.cls-15{fill:none;}.cls-16{fill:#b9b9b9;}</style>
	<linearGradient id="linear-gradient" x1="555.13" y1="-2653.01" x2="862.96" y2="-2960.84" gradientTransform="matrix(0.25, 0, 0, -0.25, -85.61, -626.62)" gradientUnits="userSpaceOnUse">
		<stop offset="0" stop-color="#fff" stop-opacity="0.1"/>
		<stop offset="1" stop-color="#fff" stop-opacity="0"/>
	</linearGradient>
</defs>
<title>Research_at_Google_Logo</title>
<path class="cls-1" d="M118,48.57h0A75.17,75.17,0,0,1,135.36,75c5.65-15.15,4.45-30-4.67-39.13-7.18-7.18-17.95-9.44-29.6-7.32,4.82-.05,8.9,1.26,11.75,4.11,3.73,3.73,5.43,9.25,5,15.76L118,48.57h0Z"/>
<path class="cls-2" d="M138,84.55c0.05,4.82-1.26,8.89-4.11,11.74-3.78,3.78-9.43,5.48-16.08,5,0,0.1,0,.2,0,0.3a75.16,75.16,0,0,1-26.32,17.21c15.17,5.64,30,4.44,39.16-4.67C137.88,106.95,140.14,96.2,138,84.55Z"/>
<path class="cls-3" d="M47.72,75c-5.65,15.15-4.45,30,4.67,39.13,7.18,7.18,17.94,9.44,29.6,7.32-4.82.05-8.9-1.26-11.75-4.11-3.78-3.78-5.49-9.43-5-16.06l-0.28,0A75.22,75.22,0,0,1,47.72,75Z"/>
<path class="cls-4" d="M91.54,31.21c-15.17-5.64-30-4.45-39.16,4.66-7.18,7.18-9.44,17.93-7.32,29.57-0.05-4.82,1.26-8.89,4.11-11.74,3.78-3.78,9.43-5.48,16.08-5,0-.1,0-0.2,0-0.3A75.14,75.14,0,0,1,91.54,31.21Z"/>
<path class="cls-5" d="M83.38,83.21h0a83.29,83.29,0,0,1-7-8.21c-7-9.33-10.62-18.67-11.13-26.58-0.41-6.5,1.29-12,5-15.76,2.86-2.85,6.93-4.16,11.75-4.11-11.65-2.12-22.41.14-29.6,7.32C43.27,45,42.07,59.85,47.72,75A75.1,75.1,0,0,0,65,101.3l0.28,0c7.84-.57,17.08-4.21,26.3-11.09A82.59,82.59,0,0,1,83.38,83.21Z"/>
<path class="cls-6" d="M117.83,101.28c-0.57-7.84-4.21-17.06-11.1-26.28a81.87,81.87,0,0,1-7,8.21h0a82.66,82.66,0,0,1-8.16,7c-9.33,7-18.68,10.61-26.58,11.12-6.52.42-12.06-1.28-15.79-5-2.86-2.85-4.17-6.92-4.11-11.74-2.12,11.65.14,22.4,7.32,29.57,9.12,9.11,24,10.31,39.15,4.67a75.24,75.24,0,0,0,26.32-17.21A2.73,2.73,0,0,0,117.83,101.28Z"/>
<path class="cls-7" d="M130.7,35.88c-9.12-9.11-24-10.31-39.16-4.66A75.22,75.22,0,0,0,65.22,48.42c0,0.1,0,.2,0,0.3,0.57,7.84,4.21,17.06,11.1,26.28a81.87,81.87,0,0,1,7-8.21h0a82.66,82.66,0,0,1,8.16-7c9.22-6.88,18.45-10.52,26.29-11.09,6.64-.49,12.29,1.21,16.08,5,2.86,2.85,4.17,6.92,4.11,11.74C140.14,53.8,137.88,43.05,130.7,35.88Z"/>
<path class="cls-8" d="M135.36,75a75.19,75.19,0,0,0-17.23-26.3l-0.3,0A41.25,41.25,0,0,0,105.2,51.9q-1.67.69-3.36,1.53t-3.41,1.83a71.27,71.27,0,0,0-6.89,4.55,82.66,82.66,0,0,1,8.16,7h0a83.29,83.29,0,0,1,7,8.21c7,9.33,10.62,18.67,11.13,26.58,0.41,6.5-1.29,12-5,15.76-2.86,2.85-6.93,4.16-11.75,4.11,11.66,2.12,22.42-.14,29.6-7.32C139.81,105,141,90.15,135.36,75Z"/>
<path class="cls-9" d="M106.73,75a81.87,81.87,0,0,1-7,8.21h0a82.66,82.66,0,0,1-8.16,7c-9.33,7-18.68,10.61-26.58,11.12-6.52.42-12.06-1.28-15.79-5-2.86-2.85-4.17-6.92-4.11-11.74a45.09,45.09,0,0,0-.76,8.69,45.2,45.2,0,0,1,.76-8.15C45,89.91,46.31,94,49.16,96.83c3.73,3.73,9.27,5.43,15.79,5,7.9-.5,17.25-4.15,26.58-11.12a82.66,82.66,0,0,0,8.16-7h0A88,88,0,0,0,107,75.35"/>
<path class="cls-10" d="M117.81,101.08a75.22,75.22,0,0,1-26.28,17.17c-15.16,5.64-30,4.44-39.15-4.67-5.35-5.34-8-12.67-8.08-20.88,0,8.42,2.61,16,8.07,21.42,9.12,9.11,24,10.31,39.15,4.67a75.24,75.24,0,0,0,26.32-17.21c0-.1,0-0.2,0-0.3S117.82,101.15,117.81,101.08Z"/>
<path class="cls-11" d="M117.86,101c-0.5-7.9-4.15-17.25-11.13-26.58a81.87,81.87,0,0,0-7-8.21h0a83.31,83.31,0,0,0-7.8-6.7l-0.36.26a82.66,82.66,0,0,1,8.16,7h0a83.29,83.29,0,0,1,7,8.21c7,9.33,10.62,18.67,11.13,26.58,0,0.64.05,1.27,0.05,1.89C117.93,102.68,117.91,101.87,117.86,101Z"/>
<path class="cls-8" d="M105.2,51.9q-1.67.69-3.36,1.53Q103.53,52.59,105.2,51.9Z"/>
<path class="cls-12" d="M105.2,51.9q-1.67.69-3.36,1.53Q103.53,52.59,105.2,51.9Z"/>
<path class="cls-8" d="M101.84,53.43q-1.69.84-3.41,1.83C99.58,54.6,100.71,54,101.84,53.43Z"/>
<path class="cls-12" d="M101.84,53.43q-1.69.84-3.41,1.83C99.58,54.6,100.71,54,101.84,53.43Z"/>
<path class="cls-12" d="M138,64.91c0.05-4.82-1.26-8.89-4.11-11.74-3.78-3.78-9.43-5.48-16.08-5-7.84.57-17.07,4.21-26.29,11.09a82.66,82.66,0,0,0-8.16,7h0a88.09,88.09,0,0,0-7.26,8.5L76.35,75a81.87,81.87,0,0,1,7-8.21h0a82.66,82.66,0,0,1,8.16-7,69.33,69.33,0,0,1,6.89-4.55c1.14-.66,2.28-1.27,3.41-1.83s2.25-1.07,3.36-1.53a46.58,46.58,0,0,1,6.51-2.17,36,36,0,0,1,6.12-1l0.3,0c6.51-.42,12.05,1.28,15.78,5,2.86,2.85,4.17,6.92,4.11,11.74a45.09,45.09,0,0,0,.76-8.69A46.84,46.84,0,0,1,138,64.91Z"/>
<path class="cls-9" d="M130.7,35.88c-9.12-9.11-24-10.31-39.15-4.67-15.17-5.64-30-4.44-39.16,4.67-5.47,5.46-8.07,13-8.08,21.42,0.11-8.2,2.73-15.54,8.07-20.88,6.21-6.2,15.09-8.74,24.9-7.94a13.88,13.88,0,0,0-7,3.65c-3.36,3.36-5.07,8.19-5.07,13.87,0.11-5.45,1.81-10.08,5.07-13.33a13.61,13.61,0,0,1,9.3-3.95,54.61,54.61,0,0,1,12,3c15.16-5.64,30-4.44,39.15,4.67,5.35,5.35,8,12.68,8.07,20.88C138.77,48.87,136.16,41.34,130.7,35.88Z"/>
<path class="cls-9" d="M65.22,49c0.5,7.9,4.15,17.25,11.13,26.58a81.87,81.87,0,0,0,7,8.21h0a83.31,83.31,0,0,0,7.8,6.7l0.36-.26a82.66,82.66,0,0,1-8.16-7h0a83.29,83.29,0,0,1-7-8.21c-7-9.33-10.62-18.67-11.13-26.58,0-.64-0.05-1.27-0.05-1.89C65.15,47.32,65.17,48.13,65.22,49Z"/>
<path class="cls-9" d="M130.7,36.41c5.35,5.34,8,12.68,8.07,20.88,0-8.42-2.61-16-8.07-21.42-9.12-9.11-24-10.31-39.16-4.66A75.22,75.22,0,0,0,65.22,48.42c0,0.1,0,.2,0,0.3s0,0.13,0,.19A75.15,75.15,0,0,1,91.54,31.75C106.71,26.11,121.58,27.3,130.7,36.41Z"/>
<path class="cls-9" d="M117.64,48.74c8,8.1,14.34,17.74,17.72,26.8a51.15,51.15,0,0,1,3.42,17.58A50.72,50.72,0,0,0,135.36,75a75,75,0,0,0-17.24-26.3Z"/>
<path class="cls-11" d="M130.7,113.59c-9,9-23.53,10.26-38.44,4.92l-0.72.28c15.17,5.64,30,4.44,39.16-4.67,5.47-5.46,8.07-13,8.07-21.42C138.67,100.91,136.05,108.24,130.7,113.59Z"/>
<path class="cls-13" d="M65.44,101.29c-8-8.1-14.34-17.77-17.71-26.83A51,51,0,0,1,44.3,56.88,50.72,50.72,0,0,0,47.72,75,75.1,75.1,0,0,0,65,101.3"/>
<path class="cls-14" d="M130.71,35.86c-9.12-9.11-24-10.29-39.17-4.62-15.17-5.67-30.05-4.48-39.17,4.62s-10.3,24-4.63,39.14c-5.67,15.15-4.48,30,4.63,39.14s24,10.29,39.17,4.63c15.17,5.67,30.05,4.48,39.17-4.63s10.3-24,4.63-39.14C141,59.85,139.82,45,130.71,35.86Zm-31,47.35a82.66,82.66,0,0,1-8.16,7,82.66,82.66,0,0,1-8.16-7h0a83.29,83.29,0,0,1-7-8.21,81.87,81.87,0,0,1,7-8.21h0a82.66,82.66,0,0,1,8.16-7,82.66,82.66,0,0,1,8.16,7h0a83.29,83.29,0,0,1,7,8.21,81.87,81.87,0,0,1-7,8.21h0Z"/><rect class="cls-15" x="40" y="23.5" width="103.08" height="103"/>
<path class="cls-16" d="M620.21,69a29.25,29.25,0,0,1,.41,5.15c0,6.55-1.79,14.65-7.57,20.42-5.62,5.85-12.79,9-22.31,9-17.63,0-32.45-14.34-32.45-32s14.82-32,32.45-32a30.49,30.49,0,0,1,21.92,8.81l-6.16,6.16a22.29,22.29,0,0,0-15.76-6.24,23.23,23.23,0,0,0,0,46.46c8.35,0,13.1-3.35,16.15-6.39,2.44-2.44,4.07-5.93,4.72-10.69H590.75V69h29.47Zm147.66-26.8v60.09h-8.94V42.25h8.94ZM644.76,62.43A20.58,20.58,0,1,0,665.34,83,20.24,20.24,0,0,0,644.76,62.43Zm0,33c-6.21,0-11.57-5.14-11.57-12.47s5.36-12.47,11.57-12.47S656.33,75.6,656.33,83,651,95.48,644.76,95.48Zm44.69-33A20.58,20.58,0,1,0,710,83,20.24,20.24,0,0,0,689.45,62.43Zm0,33c-6.21,0-11.57-5.14-11.57-12.47s5.36-12.47,11.57-12.47S701,75.6,701,83,695.66,95.48,689.45,95.48Zm54.8-31.8V67h-0.31a14.28,14.28,0,0,0-10.84-4.6c-10.3,0-19.68,9-19.68,20.65s9.38,20.5,19.68,20.5a14,14,0,0,0,10.84-4.68h0.31v3c0,7.87-4.21,12.08-11,12.08-5.54,0-9-4-10.37-7.33L715,109.9a19.62,19.62,0,0,0,18.25,12.16c10.61,0,19.58-6.24,19.58-21.44V63.68h-8.58Zm-10.58,31.8c-6.24,0-11.2-5.22-11.2-12.39s5-12.55,11.2-12.55,11.2,5.3,11.2,12.55S739.84,95.48,733.67,95.48Zm58.77,0c-4.6,0-7.88-2.1-10-6.24L810,77.86l-0.94-2.34c-1.72-4.6-6.94-13.09-17.63-13.09S772,70.77,772,83a20.14,20.14,0,0,0,20.44,20.58,20.49,20.49,0,0,0,17.16-9.12l-7-4.68C800.25,93.22,797.05,95.48,792.45,95.48Zm-0.7-25.1c3.59,0,6.63,1.79,7.64,4.37L781,82.38A11.29,11.29,0,0,1,791.75,70.38Z"/>
<path class="cls-16" d="M170.79,101.3V47.7h18.28a17,17,0,0,1,11.8,4.53,15.42,15.42,0,0,1,1.31,21.33A15.92,15.92,0,0,1,193,79l-0.15.22L207.95,101v0.3h-8.17L185.32,79.59h-7.64V101.3h-6.89Zm6.89-28.15h11.09a10.15,10.15,0,0,0,7.08-2.69,8.82,8.82,0,0,0,3-6.81,9.43,9.43,0,0,0-2.62-6.44,8.91,8.91,0,0,0-7-2.92H177.68V73.15Z"/>
<path class="cls-16" d="M228,102.49A17.71,17.71,0,0,1,214.5,97a19.63,19.63,0,0,1-5.21-14,20.19,20.19,0,0,1,5.06-13.77,16.42,16.42,0,0,1,12.92-5.76q8.16,0,13.07,5.31T245.25,83l-0.07,1.27h-29A12.44,12.44,0,0,0,219.9,93a11.25,11.25,0,0,0,8,3.22q7.42,0,10-6.29l6.14,2.55a16.44,16.44,0,0,1-5.92,7.15A17.21,17.21,0,0,1,228,102.49Zm9.89-24a9.77,9.77,0,0,0-2.88-6q-2.66-2.84-7.9-2.84a9.89,9.89,0,0,0-6.63,2.4,12.23,12.23,0,0,0-3.86,6.44h21.27Z"/>
<path class="cls-16" d="M264.8,102.49a16.5,16.5,0,0,1-10.15-3A17.71,17.71,0,0,1,248.77,92l6.14-2.55q2.92,6.89,10,6.89a9.1,9.1,0,0,0,5.28-1.42,4.36,4.36,0,0,0,2.06-3.74q0-3.59-5-4.87l-7.42-1.8a17.65,17.65,0,0,1-6.67-3.41A8.21,8.21,0,0,1,250,74.35a9.26,9.26,0,0,1,4.31-7.9,17.31,17.31,0,0,1,10.23-3,17.06,17.06,0,0,1,8.69,2.21A12.46,12.46,0,0,1,278.66,72l-6,2.47q-2-4.86-8.39-4.87a9.8,9.8,0,0,0-5.17,1.27,3.88,3.88,0,0,0-2.1,3.44q0,3.14,4.87,4.27l7.27,1.72q5.17,1.2,7.64,4.12A9.93,9.93,0,0,1,279.26,91a10.2,10.2,0,0,1-4,8.23A16,16,0,0,1,264.8,102.49Z"/>
<path class="cls-16" d="M301.51,102.49A17.71,17.71,0,0,1,288,97a19.63,19.63,0,0,1-5.21-14,20.19,20.19,0,0,1,5.06-13.77,16.42,16.42,0,0,1,12.92-5.76q8.16,0,13.07,5.31T318.74,83l-0.07,1.27h-29A12.44,12.44,0,0,0,293.38,93a11.25,11.25,0,0,0,8,3.22q7.42,0,10-6.29l6.14,2.55a16.44,16.44,0,0,1-5.92,7.15A17.21,17.21,0,0,1,301.51,102.49Zm9.89-24a9.77,9.77,0,0,0-2.88-6q-2.66-2.84-7.9-2.84A9.89,9.89,0,0,0,294,72.1a12.23,12.23,0,0,0-3.86,6.44H311.4Z"/>
<path class="cls-16" d="M336.27,102.49a14.5,14.5,0,0,1-9.78-3.37,11.15,11.15,0,0,1-3.93-8.91,11,11,0,0,1,4.64-9.39,18.85,18.85,0,0,1,11.46-3.41,19.76,19.76,0,0,1,10,2.25v-1a8.19,8.19,0,0,0-2.77-6.47A10,10,0,0,0,339,69.71a10.57,10.57,0,0,0-5.43,1.42A7.33,7.33,0,0,0,330.27,75L324,72.33a14.26,14.26,0,0,1,5-6.1q3.74-2.81,9.89-2.81a17,17,0,0,1,11.69,4.12q4.64,4.12,4.64,11.6V101.3h-6.59V96.21h-0.3Q344.21,102.49,336.27,102.49Zm1.12-6.29A11.23,11.23,0,0,0,345.14,93a9.87,9.87,0,0,0,3.48-7.52q-2.92-2.39-8.76-2.4-5,0-7.57,2.17a6.52,6.52,0,0,0-2.55,5.09,4.9,4.9,0,0,0,2.32,4.27A9.26,9.26,0,0,0,337.39,96.21Z"/>
<path class="cls-16" d="M369.15,101.3h-6.89V64.62h6.59v6h0.3a9.4,9.4,0,0,1,4.31-4.94,12.34,12.34,0,0,1,6.33-1.95,13.14,13.14,0,0,1,5.17.9l-2.62,6.44a10.43,10.43,0,0,0-3.67-.52,9,9,0,0,0-6.63,3,10.62,10.62,0,0,0-2.88,7.75V101.3Z"/>
<path class="cls-16" d="M403.24,102.49a17.92,17.92,0,0,1-13.56-5.58,19.42,19.42,0,0,1-5.32-14,19.43,19.43,0,0,1,5.32-14,17.92,17.92,0,0,1,13.56-5.58,16.67,16.67,0,0,1,10.19,3A17.54,17.54,0,0,1,419.34,74L413,76.59q-2.85-6.89-10.26-6.89a10.71,10.71,0,0,0-8.05,3.74A13.41,13.41,0,0,0,391.25,83a13.4,13.4,0,0,0,3.48,9.51,10.7,10.7,0,0,0,8.05,3.74q7.71,0,10.64-6.89l6.14,2.62a17.58,17.58,0,0,1-6,7.52A17,17,0,0,1,403.24,102.49Z"/>
<path class="cls-16" d="M431.7,47.7V64.62l-0.3,5.09h0.3a12.19,12.19,0,0,1,4.72-4.45,13.71,13.71,0,0,1,6.89-1.83q6.82,0,10.41,4.19t3.6,11.23V101.3h-6.89V79.89q0-10.18-9.06-10.18a8.49,8.49,0,0,0-7,3.41,12.36,12.36,0,0,0-2.7,7.9V101.3h-6.89V47.7h6.89Z"/>
<path class="cls-16" d="M492,102.49a14.5,14.5,0,0,1-9.78-3.37,11.15,11.15,0,0,1-3.93-8.91,11,11,0,0,1,4.64-9.39,18.85,18.85,0,0,1,11.46-3.41,19.76,19.76,0,0,1,10,2.25v-1a8.19,8.19,0,0,0-2.77-6.47,10,10,0,0,0-6.82-2.43,10.57,10.57,0,0,0-5.43,1.42A7.33,7.33,0,0,0,486,75l-6.29-2.69a14.26,14.26,0,0,1,5-6.1q3.74-2.81,9.89-2.81a17,17,0,0,1,11.69,4.12Q511,71.66,511,79.14V101.3h-6.59V96.21h-0.3Q499.94,102.49,492,102.49Zm1.12-6.29A11.23,11.23,0,0,0,500.88,93a9.87,9.87,0,0,0,3.48-7.52q-2.92-2.39-8.76-2.4-5,0-7.57,2.17a6.52,6.52,0,0,0-2.55,5.09,4.9,4.9,0,0,0,2.32,4.27A9.26,9.26,0,0,0,493.13,96.21Z"/>
<path class="cls-16" d="M533.13,101.9q-5.77,0-8.8-3.07t-3-8.68V70.91h-6.44V64.62h6.44V53.39h6.89V64.62h9v6.29h-9V89.62q0,6,4.94,6a7.36,7.36,0,0,0,3.15-.6l2.4,5.91A14,14,0,0,1,533.13,101.9Z"/></svg>